<svg width="50" height="50" viewBox="0 0 50 50" fill="none" xmlns="http://www.w3.org/2000/svg">
<path d="M25 50C38.8071 50 50 38.8071 50 25C50 11.1929 38.8071 0 25 0C11.1929 0 0 11.1929 0 25C0 38.8071 11.1929 50 25 50Z" fill="#133053"/>
<path fill-rule="evenodd" clip-rule="evenodd" d="M17.1682 13.3333C12.473 13.3333 8.66669 17.211 8.66669 21.9944V28.4902C8.66669 31.1798 9.86995 33.583 11.758 35.1715L16.5901 40.4243C17.102 40.9808 17.8292 40.5155 17.7663 39.6716L17.5785 37.1514H32.8319C37.5271 37.1514 41.3334 33.2736 41.3334 28.4902V21.9944C41.3334 17.211 37.5271 13.3333 32.8319 13.3333H17.1682Z" fill="#E8EEF4"/>
<path fill-rule="evenodd" clip-rule="evenodd" d="M9.0302 31.3333H7.8182C5.70947 31.3333 4 30.0541 4 28.4762V22.1904C4 20.8784 5.1818 19.773 6.79227 19.4376C7.53913 14.8418 11.5265 11.3333 16.3333 11.3333H33.6667C38.4735 11.3333 42.4609 14.8418 43.2077 19.4376C44.8182 19.773 46 20.8784 46 22.1904V28.4762C46 30.0541 44.2905 31.3333 42.1818 31.3333H40.9699C39.1975 33.3753 36.5829 34.6666 33.6667 34.6666H16.3333C13.4171 34.6666 10.8025 33.3753 9.0302 31.3333Z" fill="#5893DA"/>
<path d="M8.66669 21.6666C8.66669 17.0642 12.3976 13.3333 17 13.3333H33C37.6024 13.3333 41.3334 17.0642 41.3334 21.6666V29C41.3334 33.6024 37.6024 37.3333 33 37.3333H17C12.3976 37.3333 8.66669 33.6024 8.66669 29V21.6666Z" fill="#E8EEF4"/>
<path fill-rule="evenodd" clip-rule="evenodd" d="M14.4443 20.384C11.7788 21.5439 10.5464 24.6884 11.7369 27.4255C12.9275 30.1626 16.0679 31.4043 18.7334 30.2444C21.399 29.0846 22.6314 25.9401 21.4409 23.203C20.2503 20.466 17.1099 19.2242 14.4443 20.384ZM13.9327 19.2078C10.6035 20.6564 9.09394 24.5648 10.5609 27.9372C12.0279 31.3097 15.9159 32.8693 19.2451 31.4207C21.7726 30.3208 23.2514 27.8032 23.1749 25.1788C23.2294 25.1679 23.2827 25.1461 23.3315 25.113C23.7895 24.8014 24.3321 24.627 24.9108 24.6378C25.6349 24.6512 26.2935 24.9527 26.7921 25.4458C26.8168 25.4702 26.8437 25.491 26.8722 25.5082C26.9031 26.3216 27.0834 27.1442 27.4283 27.9372C28.8953 31.3097 32.7833 32.8693 36.1125 31.4207C39.4417 29.972 40.9513 26.0638 39.4843 22.6913C38.0173 19.3188 34.1293 17.7592 30.8001 19.2078C28.5997 20.1654 27.1941 22.1974 26.9176 24.4391C26.3487 24.0378 25.6659 23.7966 24.9268 23.7828C24.2593 23.7703 23.6301 23.9451 23.0841 24.2594C22.9947 23.7313 22.8403 23.2051 22.6169 22.6913C21.1499 19.3188 17.2619 17.7592 13.9327 19.2078ZM31.3118 20.384C28.6462 21.5439 27.4138 24.6884 28.6044 27.4255C29.7949 30.1626 32.9353 31.4043 35.6009 30.2444C38.2664 29.0846 39.4988 25.9401 38.3083 23.203C37.1177 20.466 33.9773 19.2242 31.3118 20.384Z" fill="#133053"/>
<g filter="url(#filter0_d_807_4234)">
<path d="M22.6667 32.9306C23.165 33.2895 23.7648 33.5013 24.4118 33.5067C25.2222 33.5135 25.9643 33.1954 26.5286 32.6667" stroke="#133053" stroke-width="0.8" stroke-linecap="round"/>
</g>
<path d="M29.278 25.7604C30.0902 23.5928 32.4349 22.4676 34.515 23.2473C36.595 24.027 37.6228 26.4162 36.8106 28.5839C35.9983 30.7515 33.6536 31.8767 31.5736 31.097C29.4936 30.3174 28.4658 27.9281 29.278 25.7604Z" fill="#133053"/>
<path d="M33.8771 25.1383C33.8381 25.582 33.4224 25.9378 32.9486 25.9331C32.4748 25.9284 32.1223 25.5649 32.1614 25.1212C32.2004 24.6776 32.6161 24.3217 33.0899 24.3264C33.5637 24.3312 33.9162 24.6946 33.8771 25.1383Z" fill="#E8EEF4"/>
<path d="M19.9124 24.3131C21.5733 25.9254 21.6654 28.5244 20.118 30.1181C18.5705 31.7117 15.9696 31.6965 14.3086 30.0841C12.6476 28.4718 12.5555 25.8728 14.103 24.2791C15.6504 22.6855 18.2514 22.7007 19.9124 24.3131Z" fill="#133053"/>
<path d="M18.6256 25.1383C18.5866 25.582 18.1709 25.9378 17.6971 25.9331C17.2233 25.9284 16.8708 25.5649 16.9099 25.1212C16.9489 24.6776 17.3646 24.3217 17.8384 24.3264C18.3122 24.3312 18.6647 24.6946 18.6256 25.1383Z" fill="#E8EEF4"/>
<defs>
<filter id="filter0_d_807_4234" x="18.2667" y="32.2667" width="12.662" height="9.64017" filterUnits="userSpaceOnUse" color-interpolation-filters="sRGB">
<feFlood flood-opacity="0" result="BackgroundImageFix"/>
<feColorMatrix in="SourceAlpha" type="matrix" values="0 0 0 0 0 0 0 0 0 0 0 0 0 0 0 0 0 0 127 0" result="hardAlpha"/>
<feOffset dy="4"/>
<feGaussianBlur stdDeviation="2"/>
<feComposite in2="hardAlpha" operator="out"/>
<feColorMatrix type="matrix" values="0 0 0 0 0 0 0 0 0 0 0 0 0 0 0 0 0 0 0.25 0"/>
<feBlend mode="normal" in2="BackgroundImageFix" result="effect1_dropShadow_807_4234"/>
<feBlend mode="normal" in="SourceGraphic" in2="effect1_dropShadow_807_4234" result="shape"/>
</filter>
</defs>
</svg>
