<svg version="1.1" id="Layer_1" xmlns="http://www.w3.org/2000/svg" xmlns:xlink="http://www.w3.org/1999/xlink" x="0px" y="0px"
	 width="100%" viewBox="0 0 512 512" enable-background="new 0 0 512 512" xml:space="preserve">
<path fill="#000000" opacity="1.000000" stroke="none" 
	d="
M339.000000,513.000000 
	C226.027451,513.000000 113.554893,513.000000 1.041169,513.000000 
	C1.041169,342.402435 1.041169,171.804840 1.041169,1.103623 
	C171.555893,1.103623 342.111877,1.103623 512.833923,1.103623 
	C512.833923,171.666534 512.833923,342.333252 512.833923,513.000000 
	C455.138153,513.000000 397.319061,513.000000 339.000000,513.000000 
M62.891800,259.827606 
	C57.064674,334.344666 125.791977,408.332581 223.697571,371.389069 
	C221.291672,361.235962 216.041718,351.509735 219.114761,340.170349 
	C231.670425,361.792664 243.427979,383.707275 261.684570,401.112152 
	C279.965759,418.540497 300.971771,431.371948 325.720215,440.562866 
	C324.637909,439.024719 324.366211,438.438538 323.924927,438.040253 
	C306.156464,422.003479 295.694275,402.021057 292.573273,378.399506 
	C290.217529,360.569763 292.129761,343.163879 300.568604,326.937988 
	C301.947021,324.287598 304.135620,322.058563 305.949738,319.634766 
	C306.698334,319.872131 307.446899,320.109467 308.195496,320.346802 
	C307.585968,326.808502 306.728973,333.258972 306.435211,339.734985 
	C306.129272,346.478394 306.366943,353.246429 306.366943,359.981140 
	C328.971710,361.939087 349.863953,360.254913 369.434570,354.930847 
	C442.376740,335.087463 482.015991,259.969452 455.924255,190.512451 
	C445.488251,162.731445 426.958954,141.952744 399.514496,128.512466 
	C373.048981,115.719582 346.038818,111.585739 317.894531,123.886963 
	C324.827667,115.135719 334.652161,112.307945 344.541290,109.231865 
	C298.822113,66.780792 249.240524,67.555969 207.445526,111.804260 
	C217.320114,118.082298 226.842667,124.663879 229.642380,137.433289 
	C210.421646,125.809013 191.141541,115.356285 167.700607,120.392830 
	C147.532761,124.726120 126.556595,142.947968 119.564682,161.970200 
	C126.226639,160.483551 132.908890,158.992386 139.591125,157.501205 
	C139.763901,158.115784 139.936676,158.730377 140.109451,159.344955 
	C136.505630,161.279266 132.916931,163.242371 129.295364,165.142853 
	C114.117958,173.107483 100.434586,183.026382 89.292557,196.158813 
	C73.899918,214.301208 64.629242,235.042969 62.891800,259.827606 
z"/>
<path fill="#FFFFFF" opacity="1.000000" stroke="none" 
	d="
M63.119743,258.992615 
	C64.629242,235.042969 73.899918,214.301208 89.292557,196.158813 
	C100.434586,183.026382 114.117958,173.107483 129.295364,165.142853 
	C132.916931,163.242371 136.505630,161.279266 140.109451,159.344955 
	C139.936676,158.730377 139.763901,158.115784 139.591125,157.501205 
	C132.908890,158.992386 126.226639,160.483551 119.564682,161.970200 
	C126.556595,142.947968 147.532761,124.726120 167.700607,120.392830 
	C191.141541,115.356285 210.421646,125.809013 229.642380,137.433289 
	C226.842667,124.663879 217.320114,118.082298 207.447632,111.802444 
	C249.240524,67.555969 298.822113,66.780792 344.541290,109.231865 
	C334.652161,112.307945 324.827667,115.135719 317.894531,123.886963 
	C346.038818,111.585739 373.048981,115.719582 399.751404,129.216537 
	C400.654724,135.166183 401.618408,140.393814 401.936554,145.660431 
	C403.386658,169.665207 399.536194,192.715088 388.344818,214.177795 
	C379.379486,231.371368 367.763000,246.448730 353.211548,259.538666 
	C330.885681,279.622192 305.085327,293.146942 276.684967,301.770691 
	C252.176346,309.212616 227.001816,312.910858 201.266937,310.975006 
	C190.551910,310.168976 179.789444,309.522675 169.173553,307.956543 
	C135.359436,302.967957 104.727333,290.065491 77.222580,269.775604 
	C72.461189,266.263214 67.817696,262.591003 63.119743,258.992615 
z"/>
<path fill="#F2F2F2" opacity="1.000000" stroke="none" 
	d="
M63.005768,259.410095 
	C67.817696,262.591003 72.461189,266.263214 77.222580,269.775604 
	C104.727333,290.065491 135.359436,302.967957 169.173553,307.956543 
	C179.789444,309.522675 190.551910,310.168976 201.266937,310.975006 
	C227.001816,312.910858 252.176346,309.212616 276.684967,301.770691 
	C305.085327,293.146942 330.885681,279.622192 353.211548,259.538666 
	C367.763000,246.448730 379.379486,231.371368 388.344818,214.177795 
	C399.536194,192.715088 403.386658,169.665207 401.936554,145.660431 
	C401.618408,140.393814 400.654724,135.166183 399.987366,129.479431 
	C426.958954,141.952744 445.488251,162.731445 455.924255,190.512451 
	C482.015991,259.969452 442.376740,335.087463 369.434570,354.930847 
	C349.863953,360.254913 328.971710,361.939087 306.366943,359.981140 
	C306.366943,353.246429 306.129272,346.478394 306.435211,339.734985 
	C306.728973,333.258972 307.585968,326.808502 308.195496,320.346802 
	C307.446899,320.109467 306.698334,319.872131 305.949738,319.634766 
	C304.135620,322.058563 301.947021,324.287598 300.568604,326.937988 
	C292.129761,343.163879 290.217529,360.569763 292.573273,378.399506 
	C295.694275,402.021057 306.156464,422.003479 323.924927,438.040253 
	C324.366211,438.438538 324.637909,439.024719 325.720215,440.562866 
	C300.971771,431.371948 279.965759,418.540497 261.684570,401.112152 
	C243.427979,383.707275 231.670425,361.792664 219.114761,340.170349 
	C216.041718,351.509735 221.291672,361.235962 223.697571,371.389069 
	C125.791977,408.332581 57.064674,334.344666 63.005768,259.410095 
z"/>
</svg>